<svg width="319" height="60" viewBox="0 0 319 60" fill="none" xmlns="http://www.w3.org/2000/svg">
<path d="M11.174 10.615H0.55896V0H11.174V10.615ZM11.0325 58.6658H0.700494V17.6917H11.0325V58.6658Z" fill="white"/>
<path d="M57.5971 58.6658H47.4066V34.2041C47.4327 32.8872 47.2045 31.5776 46.7344 30.3473C46.3295 29.3099 45.7106 28.3695 44.918 27.5873C44.1777 26.8677 43.2933 26.313 42.3232 25.9597C41.3558 25.6065 40.3337 25.4268 39.3038 25.429C37.7272 25.4311 36.1629 25.7065 34.6804 26.2428C33.1404 26.8017 31.7372 27.6822 30.5641 28.8258V58.6658H20.3737V17.7625H30.5641L30.6349 20.8055C31.3128 20.1434 32.074 19.5725 32.8994 19.1071C33.7913 18.5901 34.7266 18.152 35.6947 17.7979C36.661 17.4443 37.6552 17.1721 38.6669 16.9841C39.6351 16.7998 40.6182 16.705 41.6037 16.701C43.6384 16.6942 45.6598 17.0291 47.5836 17.6918C49.4751 18.3407 51.2105 19.3771 52.6788 20.7347C54.232 22.224 55.4398 24.0357 56.2171 26.0423C57.1658 28.5007 57.6226 31.1215 57.5617 33.7559L57.5971 58.6658Z" fill="white"/>
<path d="M88.1685 57.7928C87.0563 58.4852 85.8366 58.9874 84.5594 59.2789C83.2157 59.6063 81.8379 59.7726 80.4549 59.7743C78.3908 59.8264 76.3328 59.5272 74.3689 58.8897C72.8192 58.37 71.4462 57.4261 70.406 56.1652C69.339 54.776 68.6011 53.163 68.2476 51.4474C67.77 49.271 67.5445 47.0469 67.5753 44.8189V26.8913H62.197V22.2914C65.3719 21.0201 68.1462 18.918 70.2291 16.2054C72.4522 13.1024 73.8963 9.51024 74.4397 5.73193H77.7658V17.6915H88.0977V26.8913H77.7658V45.503C77.7385 46.3688 77.8704 47.2324 78.155 48.0506C78.3691 48.6434 78.7208 49.1769 79.1811 49.6074C79.5967 49.9774 80.0938 50.2441 80.6318 50.3859C81.1983 50.5304 81.781 50.6018 82.3656 50.5982C83.3462 50.5731 84.3203 50.4305 85.2671 50.1736C86.3281 49.9254 87.3197 49.4416 88.1685 48.7582V57.7928Z" fill="white"/>
<path d="M136.432 38.1434C136.432 38.8039 136.396 39.4879 136.325 40.1956C136.255 40.9033 136.172 41.6345 136.078 42.3894H103.383C103.764 43.575 104.299 44.7053 104.976 45.7508C105.653 46.8048 106.502 47.7377 107.488 48.5107C108.501 49.3018 109.637 49.9231 110.849 50.3507C112.18 50.8121 113.581 51.0396 114.989 51.0229C116.87 51.016 118.736 50.693 120.509 50.0676C122.197 49.5168 123.76 48.6391 125.109 47.4846L131.549 53.9244C129.063 55.8668 126.273 57.3852 123.292 58.4181C120.512 59.3012 117.611 59.7429 114.694 59.7273C111.743 59.7501 108.817 59.1723 106.096 58.0289C103.513 56.9511 101.159 55.3898 99.161 53.429C97.1889 51.4738 95.6148 49.1546 94.5257 46.6C93.4046 43.9464 92.827 41.0949 92.827 38.2141C92.827 35.3334 93.4046 32.4819 94.5257 29.8282C95.6337 27.2637 97.2369 24.943 99.2435 22.9992C101.25 21.0486 103.601 19.4887 106.179 18.3994C108.863 17.2584 111.754 16.6803 114.671 16.701C117.5 16.6962 120.303 17.2368 122.927 18.2932C125.516 19.3212 127.891 20.821 129.933 22.7162C132.046 24.6856 133.724 27.0758 134.857 29.7329C135.991 32.3899 136.555 35.2549 136.514 38.1434H136.432ZM125.746 34.204C125.017 31.7161 123.518 29.5233 121.464 27.9411C119.476 26.3867 117.018 25.5548 114.494 25.5822C112.003 25.5601 109.58 26.3927 107.629 27.9411C105.593 29.5325 104.108 31.7232 103.383 34.204H125.746Z" fill="white"/>
<path d="M172.169 22.0086L166.72 30.6658C165.737 29.5872 164.632 28.6255 163.429 27.7997C162.373 27.0139 161.1 26.5731 159.785 26.5377C159.043 26.5538 158.31 26.7099 157.626 26.9977C156.794 27.3413 156.046 27.8602 155.432 28.5192C154.682 29.3323 154.094 30.281 153.699 31.3145C153.19 32.6829 152.95 34.1365 152.991 35.5959V58.6659H142.801V17.7626H152.991V22.1501C154.069 20.5508 155.451 19.18 157.06 18.1164C158.551 17.1717 160.284 16.68 162.049 16.7011C163.903 16.716 165.721 17.2161 167.321 18.1518C169.124 19.1831 170.759 20.4837 172.169 22.0086Z" fill="white"/>
<path d="M224.253 58.6661H213.497L187.95 18.9658V58.6661H177.193V2.05249H189.507L213.497 38.9928V2.05249H224.253V58.6661Z" fill="#E50913"/>
<path d="M272.233 11.5351H245.625V24.6977H271.832V33.6143H245.625V58.6659H234.868V2.12305H272.233V11.5351Z" fill="#E50913"/>
<path d="M318.161 11.8889H302.498V58.6659H291.411V11.8889H275.772V2.12305H318.161V11.8889Z" fill="#E50913"/>
</svg>
