<svg width="319" height="60" viewBox="0 0 319 60" fill="none" xmlns="http://www.w3.org/2000/svg">
<path d="M11.1739 10.615H0.558838V0H11.1739V10.615ZM11.0323 58.6658H0.700372V17.6917H11.0323V58.6658Z" fill="white"/>
<path d="M57.597 58.6658H47.4065V34.2041C47.4326 32.8872 47.2043 31.5776 46.7342 30.3473C46.3294 29.3099 45.7105 28.3695 44.9179 27.5873C44.1775 26.8677 43.2932 26.313 42.3231 25.9597C41.3557 25.6065 40.3335 25.4268 39.3037 25.429C37.7271 25.4311 36.1628 25.7065 34.6803 26.2428C33.1403 26.8017 31.7371 27.6822 30.564 28.8258V58.6658H20.3735V17.7625H30.564L30.6347 20.8055C31.3126 20.1434 32.0739 19.5725 32.8993 19.1071C33.7911 18.5901 34.7265 18.152 35.6946 17.7979C36.6609 17.4443 37.6551 17.1721 38.6668 16.9841C39.635 16.7998 40.6181 16.705 41.6036 16.701C43.6383 16.6942 45.6597 17.0291 47.5834 17.6918C49.475 18.3407 51.2104 19.3771 52.6786 20.7347C54.2319 22.224 55.4397 24.0357 56.217 26.0423C57.1657 28.5007 57.6225 31.1215 57.5616 33.7559L57.597 58.6658Z" fill="white"/>
<path d="M88.1683 57.7928C87.0561 58.4852 85.8364 58.9874 84.5591 59.2789C83.2155 59.6063 81.8376 59.7726 80.4547 59.7743C78.3905 59.8264 76.3326 59.5272 74.3687 58.8897C72.8189 58.37 71.446 57.4261 70.4057 56.1652C69.3388 54.776 68.6008 53.163 68.2474 51.4474C67.7698 49.271 67.5442 47.0469 67.5751 44.8189V26.8913H62.1968V22.2914C65.3716 21.0201 68.146 18.918 70.2288 16.2054C72.4519 13.1024 73.8961 9.51024 74.4395 5.73193H77.7655V17.6915H88.0975V26.8913H77.7655V45.503C77.7382 46.3688 77.8702 47.2324 78.1547 48.0506C78.3689 48.6434 78.7206 49.1769 79.1809 49.6074C79.5965 49.9774 80.0935 50.2441 80.6316 50.3859C81.1981 50.5304 81.7807 50.6018 82.3654 50.5982C83.346 50.5731 84.3201 50.4305 85.2668 50.1736C86.3279 49.9254 87.3195 49.4416 88.1683 48.7582V57.7928Z" fill="white"/>
<path d="M136.431 38.1434C136.431 38.8039 136.396 39.4879 136.325 40.1956C136.255 40.9033 136.172 41.6345 136.078 42.3894H103.383C103.764 43.575 104.299 44.7053 104.976 45.7508C105.653 46.8048 106.502 47.7377 107.488 48.5107C108.501 49.3018 109.637 49.9231 110.849 50.3507C112.18 50.8121 113.581 51.0396 114.989 51.0229C116.87 51.016 118.735 50.693 120.509 50.0676C122.197 49.5168 123.76 48.6391 125.109 47.4846L131.549 53.9244C129.063 55.8668 126.273 57.3852 123.292 58.4181C120.512 59.3012 117.611 59.7429 114.694 59.7273C111.743 59.7501 108.817 59.1723 106.096 58.0289C103.513 56.9511 101.159 55.3898 99.1608 53.429C97.1888 51.4738 95.6147 49.1546 94.5256 46.6C93.4045 43.9464 92.8269 41.0949 92.8269 38.2141C92.8269 35.3334 93.4045 32.4819 94.5256 29.8282C95.6336 27.2637 97.2368 24.943 99.2434 22.9992C101.249 21.0486 103.601 19.4887 106.179 18.3994C108.863 17.2584 111.754 16.6803 114.671 16.701C117.499 16.6962 120.303 17.2368 122.927 18.2932C125.516 19.3212 127.891 20.821 129.933 22.7162C132.046 24.6856 133.723 27.0758 134.857 29.7329C135.99 32.3899 136.555 35.2549 136.514 38.1434H136.431ZM125.746 34.204C125.017 31.7161 123.518 29.5233 121.464 27.9411C119.476 26.3867 117.018 25.5548 114.494 25.5822C112.003 25.5601 109.58 26.3927 107.629 27.9411C105.593 29.5325 104.108 31.7232 103.383 34.204H125.746Z" fill="white"/>
<path d="M172.169 22.0086L166.72 30.6658C165.736 29.5872 164.632 28.6255 163.429 27.7997C162.373 27.0139 161.1 26.5731 159.784 26.5377C159.042 26.5538 158.31 26.7099 157.626 26.9977C156.794 27.3413 156.046 27.8602 155.432 28.5192C154.682 29.3323 154.093 30.281 153.698 31.3145C153.19 32.6829 152.95 34.1365 152.991 35.5959V58.6659H142.8V17.7626H152.991V22.1501C154.068 20.5508 155.451 19.18 157.06 18.1164C158.551 17.1717 160.284 16.68 162.049 16.7011C163.903 16.716 165.721 17.2161 167.321 18.1518C169.124 19.1831 170.759 20.4837 172.169 22.0086Z" fill="white"/>
<path d="M224.253 58.6661H213.497L187.95 18.9658V58.6661H177.193V2.05249H189.507L213.497 38.9928V2.05249H224.253V58.6661Z" fill="white"/>
<path d="M272.233 11.5351H245.625V24.6977H271.832V33.6143H245.625V58.6659H234.868V2.12305H272.233V11.5351Z" fill="white"/>
<path d="M318.161 11.8889H302.498V58.6659H291.411V11.8889H275.771V2.12305H318.161V11.8889Z" fill="white"/>
</svg>
